<svg width="1029" height="1026" viewBox="0 0 1029 1026" fill="none" xmlns="http://www.w3.org/2000/svg">
<path id="Union" fill-rule="evenodd" clip-rule="evenodd" d="M374.825 1L262.749 952.662V7.51739L130.36 321.871L2 7.2519V987.963H6.0742V31.3606L130.315 335.883L258.675 31.0951V987.963L262.669 989.348L374.754 37.6125L478.681 952.769V1007.94H482.756V988.645L482.83 989.302L486.755 986.624L482.756 951.405V50.2822L607.375 317.551C582.47 346.404 567.209 392.759 559.062 448.654C550.628 506.516 549.838 574.429 553.665 643.613C561.318 781.947 587.522 926.928 609.377 1010.63L613.13 1025V322.156L614.849 320.313L613.13 316.625V51.9936L716.882 325.86L820.914 100.293V1007.94H824.988V992.956H1022.59V982.97H830.438L861.656 841.096V977.977H865.73V822.58L1026 94.2024H827.025V104.189H861.656V820.059L824.988 986.703V78.126L717.162 311.922L609.056 26.5635V307.887L478.681 28.275V915.529L374.825 1ZM865.73 801.543L1019.17 104.189H865.73V801.543ZM562.898 452.013C570.701 398.477 585.234 354.295 609.056 326.65V990.432C588.292 906.068 564.827 771.058 557.702 642.271C553.924 573.979 554.764 507.827 562.898 452.013Z" fill="black" stroke="black" stroke-width="4"/>
</svg>
